#N canvas 0 56 1366 695 10;
#X floatatom 39 240 5 0 0 0 - - -;
#X floatatom 126 288 5 0 0 0 - - -;
#X obj 208 150 vsl 15 128 0 127 0 0 empty empty empty 0 -9 0 10 -262144
-1 -1 0 1;
#X obj 44 378 tgl 15 0 empty empty empty 17 7 0 10 -262144 -1 -1 0
0.962083;
#X obj 46 440 change;
#X obj 52 492 select;
#X obj 162 515 print;
#X floatatom 300 473 5 0 0 0 - - -;
#X obj 235 703 bng 15 250 50 0 empty empty empty 17 7 0 10 -262144
-1 -1;
#X obj 317 717 bng 15 250 50 0 empty empty empty 17 7 0 10 -262144
-1 -1;
#X obj 402 728 bng 15 250 50 0 empty empty empty 17 7 0 10 -262144
-1 -1;
#X obj 497 733 bng 15 250 50 0 empty empty empty 17 7 0 10 -262144
-1 -1;
#X obj 615 735 bng 15 250 50 0 empty empty empty 17 7 0 10 -262144
-1 -1;
#X obj 726 739 bng 15 250 50 0 empty empty empty 17 7 0 10 -262144
-1 -1;
#X obj 828 735 bng 15 250 50 0 empty empty empty 17 7 0 10 -262144
-1 -1;
#X obj 903 736 bng 15 250 50 0 empty empty empty 17 7 0 10 -262144
-1 -1;
#X obj 980 730 bng 15 250 50 0 empty empty empty 17 7 0 10 -262144
-1 -1;
#X obj 550 543 select 0 1 2 3 4 5 6 7;
#X obj 39 827 tabplay~ array1;
#X obj 200 819 tabplay~ array2;
#X obj 331 822 tabplay~ array3;
#X obj 456 827 tabplay~ array4;
#X obj 576 831 tabplay~ array5;
#X obj 699 834 tabplay~ array6;
#X obj 829 831 tabplay~ array7;
#X obj 935 831 tabplay~ array8;
#X obj 1091 841 tabplay~ array9;
#X obj 370 405 soundfiler;
#X obj 345 140 loadbang;
#X obj 486 123 bng 15 250 50 0 empty empty empty 17 7 0 10 -262144
-1 -1;
#X obj 38 72 adc~;
#N canvas 0 22 450 278 (subpatch) 0;
#X array array1 25600 float 4;
#X coords 0 1 25599 -1 200 140 1;
#X restore 36 -24 graph;
#N canvas 0 22 450 278 (subpatch) 0;
#X array array2 68608 float 0;
#X array array2 100 float 5;
#A 0 0 0 0 0 0 0 0 0 0 0 0 0 0 0 0 0 0 0 0 0 0 0 0 0 0 0 0 0 0 0 0
0 0 0 0 0 0 0 0 0 0 0 0 0 0 0 0 0 0 0 0 0 0 0 0 0 0 0 0 0 0 0 0 0 0
0 0 0 0 0 0 0 0 0 0 0 0 0 0 0 0 0 0 0 0 0 0 0 0 0 0 0 0 0 0 0 0 0 0
0;
#X array array2 100 float 3;
#A 0 0 0 0 0 0 0 0 0 0 0 0 0 0 0 0 0 0 0 0 0 0 0 0 0 0 0 0 0 0 0 0
0 0 0 0 0 0 0 0 0 0 0 0 0 0 0 0 0 0 0 0 0 0 0 0 0 0 0 0 0 0 0 0 0 0
0 0 0 0 0 0 0 0 0 0 0 0 0 0 0 0 0 0 0 0 0 0 0 0 0 0 0 0 0 0 0 0 0 0
0;
#X coords 0 1 100 -1 200 140 1;
#X restore 249 -25 graph;
#N canvas 0 22 450 278 (subpatch) 0;
#X array array3 44544 float 2;
#X coords 0 1 44544 -1 200 140 1;
#X restore 473 -25 graph;
#X msg 529 179 read -resize sounds/samples/SCMB-B19-120-B.aiff array1
;
#X msg 531 218 read -resize sounds/samples/SCMB-B20-121-B.aiff array2
;
#X msg 531 249 read -resize sounds/samples/SCMB-B21-122-B.aiff array3
;
#X msg 543 413 read -resize sounds/samples/SCMB-B27-128-B.aiff array9
;
#X msg 541 382 read -resize sounds/samples/SCMB-B26-127-B.aiff array8
;
#X msg 540 357 read -resize sounds/samples/SCMB-B25-126-B.aiff array7
;
#X msg 539 327 read -resize sounds/samples/SCMB-B24-125-B.aiff array6
;
#X msg 535 301 read -resize sounds/samples/SCMB-B23-124-B.aiff array5
;
#X msg 534 274 read -resize sounds/samples/SCMB-B22-123-B.aiff array4
;
#N canvas 0 22 450 278 (subpatch) 0;
#X array array4 66048 float 4;
#X coords 0 1 66047 -1 200 140 1;
#X restore 908 120 graph;
#N canvas 0 22 450 278 (subpatch) 0;
#X array array5 80896 float 4;
#X coords 0 1 80895 -1 200 140 1;
#X restore 1131 120 graph;
#N canvas 0 22 450 278 (subpatch) 0;
#X array array6 74752 float 4;
#X coords 0 1 74751 -1 200 140 1;
#X restore 1363 127 graph;
#N canvas 0 22 450 278 (subpatch) 0;
#X array array7 68608 float 4;
#X coords 0 1 68607 -1 200 140 1;
#X restore 906 302 graph;
#N canvas 0 22 450 278 (subpatch) 0;
#X array array8 84480 float 4;
#X coords 0 1 84479 -1 200 140 1;
#X restore 1134 300 graph;
#N canvas 0 22 450 278 (subpatch) 0;
#X array array9 77824 float 2;
#X coords 0 1 77824 -1 200 140 1;
#X restore 1371 305 graph;
#X obj 1253 515 import mrpeach;
#X text 1397 511 comment;
#X obj 1251 579 udpreceive 9001;
#X text 1391 572 port 9001;
#X obj 1258 623 unpack OSC;
#X text 1398 625 comment;
#X obj 1260 680 routeOSC /test;
#X obj 1439 736 print;
#X obj 1264 755 unpack s f;
#X obj 1272 827 print;
#X obj 1347 826 print;
#X obj 41 319 0.001;
#X msg 202 79 0.001;
#X obj 38 169 peakamp~ 40;
#X obj 215 430 urn 9;
#X obj 597 1086 dac~;
#X obj 733 984 hsl 128 15 0 1 0 0 empty empty empty -2 -8 0 10 -94186
-1 -1 12700 1;
#X obj 588 1014 *~ 0.1, f 17;
#X text 525 1293 Necesito Más Espacio Abajo;
#X connect 0 0 60 0;
#X connect 1 0 60 1;
#X connect 2 0 1 0;
#X connect 3 0 4 0;
#X connect 4 0 5 0;
#X connect 4 0 6 0;
#X connect 5 1 63 0;
#X connect 7 0 17 0;
#X connect 8 0 18 0;
#X connect 9 0 19 0;
#X connect 10 0 20 0;
#X connect 11 0 21 0;
#X connect 12 0 22 0;
#X connect 13 0 23 0;
#X connect 14 0 24 0;
#X connect 15 0 25 0;
#X connect 16 0 26 0;
#X connect 17 0 8 0;
#X connect 17 1 9 0;
#X connect 17 2 10 0;
#X connect 17 3 11 0;
#X connect 17 4 12 0;
#X connect 17 5 13 0;
#X connect 17 6 14 0;
#X connect 17 7 15 0;
#X connect 17 8 16 0;
#X connect 18 0 66 0;
#X connect 18 1 8 0;
#X connect 18 1 66 0;
#X connect 19 0 66 0;
#X connect 19 1 9 0;
#X connect 19 1 66 0;
#X connect 20 0 66 0;
#X connect 20 1 10 0;
#X connect 20 1 66 0;
#X connect 21 0 66 0;
#X connect 21 1 11 0;
#X connect 21 1 66 0;
#X connect 22 0 66 0;
#X connect 22 1 12 0;
#X connect 22 1 66 0;
#X connect 23 0 66 0;
#X connect 23 1 13 0;
#X connect 23 1 66 0;
#X connect 24 0 66 0;
#X connect 24 1 14 0;
#X connect 25 0 66 0;
#X connect 25 1 15 0;
#X connect 25 1 66 0;
#X connect 26 0 66 0;
#X connect 26 1 16 0;
#X connect 26 1 66 0;
#X connect 28 0 29 0;
#X connect 28 0 34 0;
#X connect 28 0 35 0;
#X connect 28 0 36 0;
#X connect 28 0 42 0;
#X connect 28 0 41 0;
#X connect 28 0 40 0;
#X connect 28 0 39 0;
#X connect 28 0 38 0;
#X connect 28 0 37 0;
#X connect 30 0 62 0;
#X connect 34 0 27 0;
#X connect 35 0 27 0;
#X connect 36 0 27 0;
#X connect 37 0 27 0;
#X connect 38 0 27 0;
#X connect 39 0 27 0;
#X connect 40 0 27 0;
#X connect 41 0 27 0;
#X connect 42 0 27 0;
#X connect 49 0 51 0;
#X connect 51 0 53 0;
#X connect 53 0 55 0;
#X connect 55 0 57 0;
#X connect 55 1 56 0;
#X connect 57 0 58 0;
#X connect 57 1 59 0;
#X connect 60 0 3 0;
#X connect 60 0 49 0;
#X connect 61 0 2 0;
#X connect 62 0 0 0;
#X connect 63 0 7 0;
#X connect 65 0 66 1;
#X connect 66 0 64 0;
#X connect 66 0 64 1;
