#N canvas 27 72 443 378 10;
#X declare -lib mrpeach;
#X obj 18 -203 udpreceive 9001;
#X obj 18 -170 unpackOSC;
#X obj 19 -263 import mrpeach;
#X obj 18 -130 routeOSC /test;
#X obj 128 -95 print;
#X obj 18 -53 print;
#X obj 18 -91 unpack s f;
#X obj 75 -53 print;
#X text 90 -172 comment;
#X text 121 -203 port 9001;
#X text 16 -299 comment;
#X text 121 -264 comment;
#X text 159 -225 comment;
#X obj 173 -196;
#X text 264 -190;
#X text 264 -129;
#X connect 0 0 1 0;
#X connect 1 0 3 0;
#X connect 3 0 4 0;
#X connect 3 0 6 0;
#X connect 6 0 5 0;
#X connect 6 1 7 0;
