#N canvas 0 56 1366 695 12;
#X obj -117 10 udpreceive 9001;
#X obj -117 50 unpack 0 0 0 0 0 0 0 0 0 0 0 0;
#X floatatom 90 82 5 0 0 1 _mensaje_processing - -;
#X floatatom 290 146 5 0 0 0 - - -;
#X floatatom 90 145 5 0 0 0 - - -;
#X obj 90 111 moses 50, f 29;
#X obj 90 187 moses 25, f 16;
#X floatatom 90 239 5 0 0 0 x<25 - -;
#X floatatom 199 240 5 0 0 0 x>=25 - -;
#X text 48 145 x<50;
#X text 241 146 x>=50;
#X floatatom 290 240 5 0 0 0 x<75 - -;
#X floatatom 399 240 5 0 0 0 x>=75 - -;
#X obj 290 187 moses 75, f 16;
#X text -138 9 RAPSODA'S VOICE, f 1;
#X obj 72 537 bng 15 250 50 0 empty empty empty 17 7 0 10 -262144 -1
-1;
#X obj 90 537 bng 15 250 50 0 empty empty empty 17 7 0 10 -262144 -1
-1;
#X obj 108 537 bng 15 250 50 0 empty empty empty 17 7 0 10 -262144
-1 -1;
#X obj 126 537 bng 15 250 50 0 empty empty empty 17 7 0 10 -262144
-1 -1;
#X obj 144 537 bng 15 250 50 0 empty empty empty 17 7 0 10 -262144
-1 -1;
#X obj 162 537 bng 15 250 50 0 empty empty empty 17 7 0 10 -262144
-1 -1;
#X obj 180 537 bng 15 250 50 0 empty empty empty 17 7 0 10 -262144
-1 -1;
#X obj 198 537 bng 15 250 50 0 empty empty empty 17 7 0 10 -262144
-1 -1;
#X obj 215 537 bng 15 250 50 0 empty empty empty 17 7 0 10 -262144
-1 -1;
#X obj 233 537 bng 15 250 50 0 empty empty empty 17 7 0 10 -262144
-1 -1;
#X obj 251 537 bng 15 250 50 0 empty empty empty 17 7 0 10 -262144
-1 -1;
#X obj 269 537 bng 15 250 50 0 empty empty empty 17 7 0 10 -262144
-1 -1;
#X obj 287 537 bng 15 250 50 0 empty empty empty 17 7 0 10 -262144
-1 -1;
#X obj 305 537 bng 15 250 50 0 empty empty empty 17 7 0 10 -262144
-1 -1;
#X obj 323 537 bng 15 250 50 0 empty empty empty 17 7 0 10 -262144
-1 -1;
#X obj 341 537 bng 15 250 50 0 empty empty empty 17 7 0 10 -262144
-1 -1;
#X obj 359 537 bng 15 250 50 0 empty empty empty 17 7 0 10 -262144
-1 -1;
#X obj 376 537 bng 15 250 50 0 empty empty empty 17 7 0 10 -262144
-1 -1;
#X obj 394 537 bng 15 250 50 0 empty empty empty 17 7 0 10 -262144
-1 -1;
#X obj 412 537 bng 15 250 50 0 empty empty empty 17 7 0 10 -262144
-1 -1;
#X obj 430 537 bng 15 250 50 0 empty empty empty 17 7 0 10 -262144
-1 -1;
#X obj 448 537 bng 15 250 50 0 empty empty empty 17 7 0 10 -262144
-1 -1;
#X obj 466 537 bng 15 250 50 0 empty empty empty 17 7 0 10 -262144
-1 -1;
#X obj 484 537 bng 15 250 50 0 empty empty empty 17 7 0 10 -262144
-1 -1;
#X obj 502 537 bng 15 250 50 0 empty empty empty 17 7 0 10 -262144
-1 -1;
#X obj 520 537 bng 15 250 50 0 empty empty empty 17 7 0 10 -262144
-1 -1;
#X text 202 385 sonido;
#X obj 257 1003 dac~;
#X text 227 1086 necesito espacio abajo;
#X floatatom 566 536 5 0 0 0 - - -;
#X obj 282 957 *~;
#X floatatom 4 536 5 0 0 0 - - -;
#X obj 256 957 *~;
#X floatatom 126 890 5 0 0 0 - - -;
#X floatatom 490 890 5 0 0 0 - - -;
#X obj 256 378 route 4 8 12 16 20 24 28 32 36 40 44 48 52 56 60 64
68 72 76 80 84 88 92 96 100, f 14;
#X obj 4 793 expr ((($f1 - $f2) * ($f5 - $f4)) / ($f3 - $f2)) + $f4
\;, f 14;
#X obj 7 682 float \$1, f 4;
#X obj 41 682 float \$2, f 4;
#X msg 7 654 1;
#X msg 41 654 24;
#X msg 75 654 0.05;
#X obj 75 682 float \$3, f 4;
#X obj 114 682 float \$4, f 4;
#X msg 114 654 1;
#X obj 567 794 expr ((($f1 - $f2) * ($f5 - $f4)) / ($f3 - $f2)) + $f4
\;, f 14;
#X obj 570 683 float \$1, f 4;
#X obj 604 683 float \$2, f 4;
#X msg 638 655 0.05;
#X obj 638 683 float \$3, f 4;
#X obj 677 683 float \$4, f 4;
#X msg 677 655 1;
#X msg 570 655 75;
#X msg 604 655 100;
#X connect 0 0 1 0;
#X connect 1 11 2 0;
#X connect 2 0 5 0;
#X connect 3 0 13 0;
#X connect 4 0 6 0;
#X connect 5 0 4 0;
#X connect 5 1 3 0;
#X connect 6 0 7 0;
#X connect 6 1 8 0;
#X connect 7 0 46 0;
#X connect 7 0 50 0;
#X connect 8 0 50 0;
#X connect 11 0 50 0;
#X connect 12 0 44 0;
#X connect 12 0 50 0;
#X connect 13 0 11 0;
#X connect 13 1 12 0;
#X connect 44 0 60 0;
#X connect 44 0 67 0;
#X connect 44 0 68 0;
#X connect 44 0 63 0;
#X connect 44 0 66 0;
#X connect 45 0 42 1;
#X connect 46 0 51 0;
#X connect 46 0 54 0;
#X connect 46 0 55 0;
#X connect 46 0 56 0;
#X connect 46 0 59 0;
#X connect 47 0 42 0;
#X connect 48 0 47 0;
#X connect 48 0 47 1;
#X connect 49 0 45 0;
#X connect 49 0 45 1;
#X connect 50 0 15 0;
#X connect 50 1 16 0;
#X connect 50 2 17 0;
#X connect 50 3 18 0;
#X connect 50 4 19 0;
#X connect 50 5 20 0;
#X connect 50 6 21 0;
#X connect 50 7 22 0;
#X connect 50 8 23 0;
#X connect 50 9 24 0;
#X connect 50 10 25 0;
#X connect 50 11 26 0;
#X connect 50 12 27 0;
#X connect 50 13 28 0;
#X connect 50 14 29 0;
#X connect 50 15 30 0;
#X connect 50 16 31 0;
#X connect 50 17 32 0;
#X connect 50 18 33 0;
#X connect 50 19 34 0;
#X connect 50 20 35 0;
#X connect 50 21 36 0;
#X connect 50 22 37 0;
#X connect 50 23 38 0;
#X connect 50 24 39 0;
#X connect 50 25 40 0;
#X connect 51 0 48 0;
#X connect 52 0 51 1;
#X connect 53 0 51 2;
#X connect 54 0 52 0;
#X connect 55 0 53 0;
#X connect 56 0 57 0;
#X connect 57 0 51 3;
#X connect 58 0 51 4;
#X connect 59 0 58 0;
#X connect 60 0 49 0;
#X connect 61 0 60 1;
#X connect 62 0 60 2;
#X connect 63 0 64 0;
#X connect 64 0 60 3;
#X connect 65 0 60 4;
#X connect 66 0 65 0;
#X connect 67 0 61 0;
#X connect 68 0 62 0;
