#N canvas 1 368 1364 695 12;
#X obj 153 10 udpreceive 9001;
#X obj 153 50 unpack 0 0 0 0 0 0 0 0 0 0 0 0;
#X floatatom 360 82 5 0 0 1 _mensaje_processing - -;
#X floatatom 560 146 5 0 0 0 - - -;
#X floatatom 360 145 5 0 0 0 - - -;
#X obj 360 111 moses 50, f 29;
#X obj 360 187 moses 25, f 16;
#X floatatom 360 239 5 0 0 0 x<25 - -;
#X floatatom 469 240 5 0 0 0 x>=25 - -;
#X text 318 145 x<50;
#X text 511 146 x>=50;
#X floatatom 560 240 5 0 0 0 x<75 - -;
#X floatatom 669 240 5 0 0 0 x>=75 - -;
#X obj 560 187 moses 75, f 16;
#X obj 342 537 bng 15 250 50 0 empty empty empty 17 7 0 10 -262144
-1 -1;
#X obj 340 537 bng 15 250 50 0 empty empty empty 17 7 0 10 -262144
-1 -1;
#X obj 358 537 bng 15 250 50 0 empty empty empty 17 7 0 10 -262144
-1 -1;
#X obj 376 537 bng 15 250 50 0 empty empty empty 17 7 0 10 -262144
-1 -1;
#X obj 394 537 bng 15 250 50 0 empty empty empty 17 7 0 10 -262144
-1 -1;
#X obj 412 537 bng 15 250 50 0 empty empty empty 17 7 0 10 -262144
-1 -1;
#X obj 430 537 bng 15 250 50 0 empty empty empty 17 7 0 10 -262144
-1 -1;
#X obj 448 537 bng 15 250 50 0 empty empty empty 17 7 0 10 -262144
-1 -1;
#X obj 465 537 bng 15 250 50 0 empty empty empty 17 7 0 10 -262144
-1 -1;
#X obj 483 537 bng 15 250 50 0 empty empty empty 17 7 0 10 -262144
-1 -1;
#X obj 501 537 bng 15 250 50 0 empty empty empty 17 7 0 10 -262144
-1 -1;
#X obj 519 537 bng 15 250 50 0 empty empty empty 17 7 0 10 -262144
-1 -1;
#X obj 537 537 bng 15 250 50 0 empty empty empty 17 7 0 10 -262144
-1 -1;
#X obj 555 537 bng 15 250 50 0 empty empty empty 17 7 0 10 -262144
-1 -1;
#X obj 573 537 bng 15 250 50 0 empty empty empty 17 7 0 10 -262144
-1 -1;
#X obj 591 537 bng 15 250 50 0 empty empty empty 17 7 0 10 -262144
-1 -1;
#X obj 609 537 bng 15 250 50 0 empty empty empty 17 7 0 10 -262144
-1 -1;
#X obj 626 537 bng 15 250 50 0 empty empty empty 17 7 0 10 -262144
-1 -1;
#X obj 644 537 bng 15 250 50 0 empty empty empty 17 7 0 10 -262144
-1 -1;
#X obj 662 537 bng 15 250 50 0 empty empty empty 17 7 0 10 -262144
-1 -1;
#X obj 680 537 bng 15 250 50 0 empty empty empty 17 7 0 10 -262144
-1 -1;
#X obj 698 537 bng 15 250 50 0 empty empty empty 17 7 0 10 -262144
-1 -1;
#X obj 716 537 bng 15 250 50 0 empty empty empty 17 7 0 10 -262144
-1 -1;
#X obj 734 537 bng 15 250 50 0 empty empty empty 17 7 0 10 -262144
-1 -1;
#X obj 752 537 bng 15 250 50 0 empty empty empty 17 7 0 10 -262144
-1 -1;
#X obj 770 537 bng 15 250 50 0 empty empty empty 17 7 0 10 -262144
-1 -1;
#X text 227 1456 necesito espacio abajo;
#X floatatom 836 536 5 0 0 0 - - -;
#X obj 552 1147 *~;
#X floatatom 184 536 5 0 0 0 - - -;
#X obj 526 1147 *~;
#X floatatom 336 1088 5 0 0 0 - - -;
#X floatatom 760 1088 5 0 0 0 - - -;
#X obj 506 378 route 4 8 12 16 20 24 28 32 36 40 44 48 52 56 60 64
68 72 76 80 84 88 92 96 100, f 14;
#X obj 184 793 expr ((($f1 - $f2) * ($f5 - $f4)) / ($f3 - $f2)) + $f4
\;, f 14;
#X obj 187 682 float \$1, f 4;
#X obj 221 682 float \$2, f 4;
#X msg 187 654 1;
#X msg 221 654 24;
#X msg 255 654 0.05;
#X obj 255 682 float \$3, f 4;
#X obj 294 682 float \$4, f 4;
#X msg 294 654 1;
#X obj 837 794 expr ((($f1 - $f2) * ($f5 - $f4)) / ($f3 - $f2)) + $f4
\;, f 14;
#X obj 840 683 float \$1, f 4;
#X obj 874 683 float \$2, f 4;
#X msg 908 655 0.05;
#X obj 908 683 float \$3, f 4;
#X obj 947 683 float \$4, f 4;
#X msg 947 655 1;
#X msg 874 655 100;
#N canvas 0 50 450 250 (subpatch) 0;
#X coords 0 1 100 -1 50 240 1 0 0;
#X restore -288 8 graph;
#X text -270 19 RAPSODA'S VOICE, f 1;
#N canvas 0 50 450 250 (subpatch) 0;
#X coords 0 1 100 -1 50 120 1 0 0;
#X restore 414 361 graph;
#X text 432 372 SONIDO, f 1;
#N canvas 0 50 450 250 (subpatch) 0;
#X coords 0 1 100 -1 50 225 1 0 0;
#X restore 1010 617 graph;
#N canvas 0 50 450 250 (subpatch) 0;
#X coords 0 1 100 -1 50 225 1 0 0;
#X restore 110 616 graph;
#N canvas 0 50 450 250 (subpatch) 0;
#X coords 0 1 100 -1 135 50 1 0 0;
#X restore 1274 695 graph;
#X text 1292 707 E F E C T O S;
#X text 129 627 MAPEO| VOL |IZQ, f 1;
#X text 1028 628 MAPEO |VOL |DER, f 1;
#X msg 997 93 \; pd dsp \$1;
#X obj 997 66 tgl 15 0 empty empty empty 17 7 0 10 -262144 -1 -1 1
1;
#N canvas 0 50 450 250 (subpatch) 0;
#X coords 0 1 100 -1 50 170 1 0 0;
#X restore 926 18 graph;
#X text 946 31 S Y S | A U D I O, f 1;
#X floatatom 1274 769 5 0 0 0 - - -;
#N canvas 0 50 450 250 (subpatch) 0;
#X coords 0 1 100 -1 135 50 1 0 0;
#X restore -156 685 graph;
#X text -138 697 E F E C T O S;
#X floatatom -168 769 5 0 0 0 - - -;
#N canvas 0 50 450 250 (subpatch) 0;
#X coords 0 1 100 -1 50 240 1 0 0;
#X restore 1462 8 graph;
#X text 1480 19 RAPSODA'S VOICE, f 1;
#X obj 527 1233 dac~ 1 2;
#X obj 492 1326 vu 15 120 empty empty -1 -8 0 10 -66577 -1 1 0;
#X obj 491 1233 env~;
#X obj 592 1326 vu 15 120 empty empty -1 -8 0 10 -66577 -1 1 0;
#X obj 591 1233 env~;
#X obj 491 1272 - 100;
#X obj 591 1273 - 100;
#X obj 524 1194 freeverb~;
#X obj 1278 1030 hsl 36 24 0 1 0 0 empty empty empty -2 -8 0 10 -232576
-1 -1 292 1;
#X obj 1275 939 expr ((($f1 - $f2) * ($f5 - $f4)) / ($f3 - $f2)) +
$f4 \;, f 14;
#X obj 1278 828 float \$1, f 4;
#X obj 1312 828 float \$2, f 4;
#X obj 1346 828 float \$3, f 4;
#X obj 1385 828 float \$4, f 4;
#X msg 1385 800 1;
#X msg 840 655 75;
#X msg 1278 800 50;
#X msg 1312 800 74;
#X msg 1346 800 0;
#X msg 1275 1059 wet \$1;
#X obj -165 1030 hsl 36 24 0 1 0 0 empty empty empty -2 -8 0 10 -204786
-1 -1 786 1;
#X obj -168 939 expr ((($f1 - $f2) * ($f5 - $f4)) / ($f3 - $f2)) +
$f4 \;, f 14;
#X obj -165 828 float \$1, f 4;
#X obj -131 828 float \$2, f 4;
#X obj -97 828 float \$3, f 4;
#X obj -58 828 float \$4, f 4;
#X msg -58 800 1;
#X msg -131 800 74;
#X msg -97 800 0;
#X msg -168 1059 roomsize \$1;
#N canvas 0 50 450 250 (subpatch) 0;
#X coords 0 1 100 -1 50 165 1 0 0;
#X restore 603 3 graph;
#X text 623 16 SEGMENTAR, f 1;
#X msg -165 800 25;
#X msg 713 619 261;
#X msg 751 619 269;
#X msg 351 589 329;
#X msg 391 590 349;
#X msg 471 589 392;
#X msg 551 589 440;
#X msg 631 589 493;
#X msg 672 589 523;
#X msg 791 619 277;
#X msg 313 589 311;
#X msg 432 589 370;
#X msg 513 589 415;
#X msg 593 589 466;
#X msg 713 589 554;
#X msg 751 589 622;
#X msg 791 589 740;
#X msg 432 619 130;
#X msg 471 619 146;
#X msg 513 619 164;
#X msg 551 619 174;
#X msg 593 619 196;
#X msg 631 619 220;
#X msg 672 619 246;
#X msg 313 619 65;
#X msg 351 619 92;
#X msg 391 620 103;
#X obj 538 1068 osc~;
#X msg 570 1068 0;
#X connect 0 0 1 0;
#X connect 1 11 2 0;
#X connect 2 0 5 0;
#X connect 3 0 13 0;
#X connect 4 0 6 0;
#X connect 5 0 4 0;
#X connect 5 1 3 0;
#X connect 6 0 7 0;
#X connect 6 1 8 0;
#X connect 7 0 43 0;
#X connect 7 0 47 0;
#X connect 8 0 82 0;
#X connect 8 0 47 0;
#X connect 11 0 79 0;
#X connect 11 0 47 0;
#X connect 12 0 41 0;
#X connect 12 0 47 0;
#X connect 13 0 11 0;
#X connect 13 1 12 0;
#X connect 14 0 119 0;
#X connect 15 0 126 0;
#X connect 16 0 123 0;
#X connect 17 0 137 0;
#X connect 18 0 125 0;
#X connect 19 0 120 0;
#X connect 20 0 140 0;
#X connect 21 0 141 0;
#X connect 22 0 138 0;
#X connect 23 0 132 0;
#X connect 24 0 118 0;
#X connect 25 0 135 0;
#X connect 26 0 143 0;
#X connect 27 0 133 0;
#X connect 28 0 129 0;
#X connect 29 0 128 0;
#X connect 30 0 121 0;
#X connect 31 0 131 0;
#X connect 32 0 130 0;
#X connect 33 0 134 0;
#X connect 34 0 124 0;
#X connect 35 0 127 0;
#X connect 36 0 122 0;
#X connect 37 0 136 0;
#X connect 38 0 142 0;
#X connect 39 0 139 0;
#X connect 41 0 57 0;
#X connect 41 0 100 0;
#X connect 41 0 64 0;
#X connect 41 0 60 0;
#X connect 41 0 63 0;
#X connect 42 0 92 1;
#X connect 43 0 51 0;
#X connect 43 0 52 0;
#X connect 43 0 53 0;
#X connect 43 0 56 0;
#X connect 43 0 48 0;
#X connect 44 0 92 0;
#X connect 45 0 44 1;
#X connect 46 0 42 1;
#X connect 47 0 14 0;
#X connect 47 1 15 0;
#X connect 47 2 16 0;
#X connect 47 3 17 0;
#X connect 47 4 18 0;
#X connect 47 5 19 0;
#X connect 47 6 20 0;
#X connect 47 7 21 0;
#X connect 47 8 22 0;
#X connect 47 9 23 0;
#X connect 47 10 24 0;
#X connect 47 11 25 0;
#X connect 47 12 26 0;
#X connect 47 13 27 0;
#X connect 47 14 28 0;
#X connect 47 15 29 0;
#X connect 47 16 30 0;
#X connect 47 17 31 0;
#X connect 47 18 32 0;
#X connect 47 19 33 0;
#X connect 47 20 34 0;
#X connect 47 21 35 0;
#X connect 47 22 36 0;
#X connect 47 23 37 0;
#X connect 47 24 38 0;
#X connect 47 25 39 0;
#X connect 48 0 45 0;
#X connect 49 0 48 1;
#X connect 50 0 48 2;
#X connect 51 0 49 0;
#X connect 52 0 50 0;
#X connect 53 0 54 0;
#X connect 54 0 48 3;
#X connect 55 0 48 4;
#X connect 56 0 55 0;
#X connect 57 0 46 0;
#X connect 58 0 57 1;
#X connect 59 0 57 2;
#X connect 60 0 61 0;
#X connect 61 0 57 3;
#X connect 62 0 57 4;
#X connect 63 0 62 0;
#X connect 64 0 59 0;
#X connect 76 0 75 0;
#X connect 79 0 94 0;
#X connect 79 0 99 0;
#X connect 79 0 103 0;
#X connect 79 0 102 0;
#X connect 79 0 101 0;
#X connect 82 0 111 0;
#X connect 82 0 113 0;
#X connect 82 0 106 0;
#X connect 82 0 117 0;
#X connect 82 0 112 0;
#X connect 87 0 90 0;
#X connect 89 0 91 0;
#X connect 90 0 86 0;
#X connect 91 0 88 0;
#X connect 92 0 87 0;
#X connect 92 0 85 0;
#X connect 92 1 89 0;
#X connect 92 1 85 1;
#X connect 93 0 104 0;
#X connect 94 0 93 0;
#X connect 95 0 94 1;
#X connect 96 0 94 2;
#X connect 97 0 94 3;
#X connect 98 0 94 4;
#X connect 99 0 98 0;
#X connect 100 0 58 0;
#X connect 101 0 95 0;
#X connect 102 0 96 0;
#X connect 103 0 97 0;
#X connect 104 0 92 0;
#X connect 105 0 114 0;
#X connect 106 0 105 0;
#X connect 107 0 106 1;
#X connect 108 0 106 2;
#X connect 109 0 106 3;
#X connect 110 0 106 4;
#X connect 111 0 110 0;
#X connect 112 0 108 0;
#X connect 113 0 109 0;
#X connect 114 0 92 0;
#X connect 117 0 107 0;
#X connect 118 0 144 0;
#X connect 119 0 144 0;
#X connect 120 0 144 0;
#X connect 121 0 144 0;
#X connect 122 0 144 0;
#X connect 123 0 144 0;
#X connect 124 0 144 0;
#X connect 125 0 144 0;
#X connect 126 0 144 0;
#X connect 127 0 144 0;
#X connect 128 0 144 0;
#X connect 129 0 144 0;
#X connect 130 0 144 0;
#X connect 131 0 144 0;
#X connect 132 0 144 0;
#X connect 133 0 144 0;
#X connect 134 0 144 0;
#X connect 135 0 144 0;
#X connect 136 0 144 0;
#X connect 137 0 144 0;
#X connect 138 0 144 0;
#X connect 139 0 144 0;
#X connect 140 0 144 0;
#X connect 141 0 144 0;
#X connect 142 0 144 0;
#X connect 143 0 144 0;
#X connect 144 0 44 0;
#X connect 144 0 42 0;
#X connect 145 0 45 0;
#X connect 145 0 46 0;
